<svg width="33" height="32" viewBox="0 0 33 32" fill="none" xmlns="http://www.w3.org/2000/svg">
<path d="M27.8335 13.5866H23.9802C20.8202 13.5866 18.2468 11.0133 18.2468 7.85329V3.99996C18.2468 3.26663 17.6468 2.66663 16.9135 2.66663H11.2602C7.1535 2.66663 3.8335 5.33329 3.8335 10.0933V21.9066C3.8335 26.6666 7.1535 29.3333 11.2602 29.3333H21.7402C25.8468 29.3333 29.1668 26.6666 29.1668 21.9066V14.92C29.1668 14.1866 28.5668 13.5866 27.8335 13.5866ZM15.8735 18.04C15.6735 18.24 15.4202 18.3333 15.1668 18.3333C14.9135 18.3333 14.6602 18.24 14.4602 18.04L13.5002 17.08V22.6666C13.5002 23.2133 13.0468 23.6666 12.5002 23.6666C11.9535 23.6666 11.5002 23.2133 11.5002 22.6666V17.08L10.5402 18.04C10.1535 18.4266 9.5135 18.4266 9.12683 18.04C8.74016 17.6533 8.74016 17.0133 9.12683 16.6266L11.7935 13.96C11.8868 13.88 11.9802 13.8133 12.0868 13.76C12.1135 13.7466 12.1535 13.7333 12.1802 13.72C12.2602 13.6933 12.3402 13.68 12.4335 13.6666C12.4735 13.6666 12.5002 13.6666 12.5402 13.6666C12.6468 13.6666 12.7535 13.6933 12.8602 13.7333C12.8735 13.7333 12.8735 13.7333 12.8868 13.7333C12.9935 13.7733 13.1002 13.8533 13.1802 13.9333C13.1935 13.9466 13.2068 13.9466 13.2068 13.96L15.8735 16.6266C16.2602 17.0133 16.2602 17.6533 15.8735 18.04Z" fill="#3366FF"/>
<path d="M23.7399 11.7467C25.0066 11.76 26.7666 11.76 28.2732 11.76C29.0332 11.76 29.4332 10.8667 28.8999 10.3334C26.9799 8.40003 23.5399 4.92003 21.5666 2.9467C21.0199 2.40003 20.0732 2.77336 20.0732 3.53336V8.1867C20.0732 10.1334 21.7266 11.7467 23.7399 11.7467Z" fill="#3366FF"/>
</svg>
