<svg width="25" height="24" viewBox="0 0 25 24" fill="none" xmlns="http://www.w3.org/2000/svg">
<path d="M12.7002 18.75C12.2902 18.75 11.9502 18.41 11.9502 18V15C11.9502 14.59 12.2902 14.25 12.7002 14.25C13.1102 14.25 13.4502 14.59 13.4502 15V18C13.4502 18.41 13.1102 18.75 12.7002 18.75Z" fill="#9CA3AF"/>
<path d="M18.3002 22.56H7.10016C5.28016 22.56 3.62016 21.16 3.32016 19.37L1.99016 11.4C1.77016 10.16 2.38016 8.57001 3.37016 7.78001L10.3002 2.23001C11.6402 1.15001 13.7502 1.16001 15.1002 2.24001L22.0302 7.78001C23.0102 8.57001 23.6102 10.16 23.4102 11.4L22.0802 19.36C21.7802 21.13 20.0802 22.56 18.3002 22.56ZM12.6902 2.93001C12.1602 2.93001 11.6302 3.09001 11.2402 3.40001L4.31016 8.96001C3.75016 9.41001 3.35016 10.45 3.47016 11.16L4.80016 19.12C4.98016 20.17 6.03016 21.06 7.10016 21.06H18.3002C19.3702 21.06 20.4202 20.17 20.6002 19.11L21.9302 11.15C22.0402 10.45 21.6402 9.39001 21.0902 8.95001L14.1602 3.41001C13.7602 3.09001 13.2202 2.93001 12.6902 2.93001Z" fill="#9CA3AF"/>
</svg>
