<svg width="25" height="24" viewBox="0 0 25 24" fill="none" xmlns="http://www.w3.org/2000/svg">
<path d="M17.0999 2H7.09985C4.33985 2 2.09985 4.23 2.09985 6.98V12.96V13.96C2.09985 16.71 4.33985 18.94 7.09985 18.94H8.59985C8.86985 18.94 9.22985 19.12 9.39985 19.34L10.8999 21.33C11.5599 22.21 12.6399 22.21 13.2999 21.33L14.7999 19.34C14.9899 19.09 15.2899 18.94 15.5999 18.94H17.0999C19.8599 18.94 22.0999 16.71 22.0999 13.96V6.98C22.0999 4.23 19.8599 2 17.0999 2ZM8.09985 12C7.53985 12 7.09985 11.55 7.09985 11C7.09985 10.45 7.54985 10 8.09985 10C8.64985 10 9.09985 10.45 9.09985 11C9.09985 11.55 8.65985 12 8.09985 12ZM12.0999 12C11.5399 12 11.0999 11.55 11.0999 11C11.0999 10.45 11.5499 10 12.0999 10C12.6499 10 13.0999 10.45 13.0999 11C13.0999 11.55 12.6599 12 12.0999 12ZM16.0999 12C15.5399 12 15.0999 11.55 15.0999 11C15.0999 10.45 15.5499 10 16.0999 10C16.6499 10 17.0999 10.45 17.0999 11C17.0999 11.55 16.6599 12 16.0999 12Z" fill="#3366FF"/>
</svg>
