<svg width="22" height="22" viewBox="0 0 22 22" fill="none" xmlns="http://www.w3.org/2000/svg">
<path d="M10.9999 20.8542C5.56409 20.8542 1.14575 16.4358 1.14575 11C1.14575 5.56418 5.56409 1.14584 10.9999 1.14584C16.4358 1.14584 20.8541 5.56418 20.8541 11C20.8541 16.4358 16.4358 20.8542 10.9999 20.8542ZM10.9999 2.52084C6.32492 2.52084 2.52075 6.32501 2.52075 11C2.52075 15.675 6.32492 19.4792 10.9999 19.4792C15.6749 19.4792 19.4791 15.675 19.4791 11C19.4791 6.32501 15.6749 2.52084 10.9999 2.52084Z" fill="#FF472B"/>
<path d="M8.40591 14.2817C8.23174 14.2817 8.05758 14.2175 7.92008 14.08C7.65424 13.8142 7.65424 13.3742 7.92008 13.1083L13.1084 7.91999C13.3742 7.65415 13.8142 7.65415 14.0801 7.91999C14.3459 8.18582 14.3459 8.62582 14.0801 8.89165L8.89174 14.08C8.76341 14.2175 8.58008 14.2817 8.40591 14.2817Z" fill="#FF472B"/>
<path d="M13.5942 14.2817C13.4201 14.2817 13.2459 14.2175 13.1084 14.08L7.92008 8.89165C7.65424 8.62582 7.65424 8.18582 7.92008 7.91999C8.18591 7.65415 8.62591 7.65415 8.89174 7.91999L14.0801 13.1083C14.3459 13.3742 14.3459 13.8142 14.0801 14.08C13.9426 14.2175 13.7684 14.2817 13.5942 14.2817Z" fill="#FF472B"/>
</svg>
