<svg width="20" height="21" viewBox="0 0 20 21" fill="none" xmlns="http://www.w3.org/2000/svg">
<path d="M12.7167 19.0417H7.28332C3.19165 19.0417 1.44165 17.2917 1.44165 13.2001V13.0917C1.44165 9.39173 2.89998 7.6084 6.16665 7.30006C6.49998 7.27506 6.81665 7.52506 6.84998 7.86673C6.88332 8.2084 6.63332 8.51673 6.28332 8.55006C3.66665 8.79173 2.69165 10.0251 2.69165 13.1001V13.2084C2.69165 16.6001 3.89165 17.8001 7.28332 17.8001H12.7167C16.1083 17.8001 17.3083 16.6001 17.3083 13.2084V13.1001C17.3083 10.0084 16.3166 8.77506 13.65 8.55006C13.3083 8.51673 13.05 8.21673 13.0833 7.87506C13.1166 7.5334 13.4083 7.27506 13.7583 7.3084C17.075 7.59173 18.5583 9.3834 18.5583 13.1084V13.2167C18.5583 17.2917 16.8083 19.0417 12.7167 19.0417Z" fill="#111827"/>
<path d="M10 13.6249C9.65833 13.6249 9.375 13.3416 9.375 12.9999V3.5166C9.375 3.17493 9.65833 2.8916 10 2.8916C10.3417 2.8916 10.625 3.17493 10.625 3.5166V12.9999C10.625 13.3416 10.3417 13.6249 10 13.6249Z" fill="#111827"/>
<path d="M12.7917 6.00003C12.6334 6.00003 12.475 5.9417 12.35 5.8167L10 3.4667L7.65003 5.8167C7.40837 6.05837 7.00837 6.05837 6.7667 5.8167C6.52503 5.57503 6.52503 5.17503 6.7667 4.93337L9.55837 2.1417C9.80003 1.90003 10.2 1.90003 10.4417 2.1417L13.2334 4.93337C13.475 5.17503 13.475 5.57503 13.2334 5.8167C13.1167 5.9417 12.95 6.00003 12.7917 6.00003Z" fill="#111827"/>
</svg>
